# xmcd
#
# Track frame offsets: 
#        150
#        22455
#        41252
#        58797
#        77595
#        97035
#        115372
#        133600
#        150285
#        170440
#
# Disc length: 2536 seconds
#
# Revision: 2
# Processed by: cddbd v1.5.2PL0 Copyright (c) Steve Scherf et al.
# Submitted via: ExactAudioCopy v1.3
#
DISCID=7d09e60a
DTITLE=Bart Millard - Bart Millard's Hymned No.1
DYEAR=2005
DGENRE=Gospel
TTITLE0=Just A Closer Walk With Thee
TTITLE1=Mamaw's Song
TTITLE2=Pass Me Not, O Gentle Savior
TTITLE3=Have A Little Talk With Jesus
TTITLE4=Precious Lord, Take My Hand
TTITLE5=Softly And Tenderly
TTITLE6=Sweetest Name I Know
TTITLE7=Power In The Blood
TTITLE8=My Jesus I Love Thee
TTITLE9=The Old Rugged Cross
EXTD=
EXTT0=
EXTT1=
EXTT2=
EXTT3=
EXTT4=
EXTT5=
EXTT6=
EXTT7=
EXTT8=
EXTT9=
PLAYORDER=
